<svg viewBox="0 0 103 76" fill="none" xmlns="http://www.w3.org/2000/svg">
	<path
		d="M99.2702 13.0304C98.3261 7.82027 93.8288 4.02576 88.6126 2.84136C80.7984 1.1844 66.3433 0 50.7037 0C35.0642 0 20.3868 1.1844 12.5666 2.84136C7.35642 4.02174 2.85006 7.57897 1.90595 13.0304C0.60813 21.2577 -0.0263316 29.576 0.00869893 37.9049C-0.0882007 46.2464 0.624642 54.5776 2.1372 62.7814C3.09036 67.9915 7.58767 71.786 12.7948 72.9704C21.0896 74.6264 35.2995 75.8098 50.944 75.8098C66.5886 75.8098 80.7984 74.6254 89.0902 72.9684C94.3004 71.784 98.7977 68.2298 99.7478 62.7793C101.108 54.5521 101.901 46.241 102.121 37.9049C101.799 29.5534 100.846 21.2382 99.2702 13.0304V13.0304ZM37.9136 54.4895V21.3223L66.8158 37.9049L37.9136 54.4895Z"
		fill="currentColor" />
</svg>