<svg width="114" height="94" viewBox="0 0 114 94" fill="none" xmlns="http://www.w3.org/2000/svg">
<ellipse cx="20.1793" cy="3.16656" rx="2.5" ry="2.62469" transform="rotate(14.4844 20.1793 3.16656)" fill="#706FE5"/>
<ellipse cx="9.22811" cy="45.5593" rx="2.5" ry="2.62469" transform="rotate(14.4844 9.22811 45.5593)" fill="#706FE5"/>
<ellipse cx="56.3809" cy="12.5184" rx="2.5" ry="2.62469" transform="rotate(14.4844 56.3809 12.5184)" fill="#706FE5"/>
<ellipse cx="45.4297" cy="54.9112" rx="2.5" ry="2.62469" transform="rotate(14.4844 45.4297 54.9112)" fill="#706FE5"/>
<ellipse cx="92.5826" cy="21.8703" rx="2.5" ry="2.62469" transform="rotate(14.4844 92.5826 21.8703)" fill="#706FE5"/>
<ellipse cx="81.6313" cy="64.2631" rx="2.5" ry="2.62469" transform="rotate(14.4844 81.6313 64.2631)" fill="#706FE5"/>
<ellipse cx="14.7038" cy="24.3628" rx="2.5" ry="2.62469" transform="rotate(14.4844 14.7038 24.3628)" fill="#706FE5"/>
<ellipse cx="3.75265" cy="66.7553" rx="2.5" ry="2.62469" transform="rotate(14.4844 3.75265 66.7553)" fill="#706FE5"/>
<ellipse cx="50.9054" cy="33.7147" rx="2.5" ry="2.62469" transform="rotate(14.4844 50.9054 33.7147)" fill="#706FE5"/>
<ellipse cx="39.9542" cy="76.1072" rx="2.5" ry="2.62469" transform="rotate(14.4844 39.9542 76.1072)" fill="#706FE5"/>
<ellipse cx="87.107" cy="43.0666" rx="2.5" ry="2.62469" transform="rotate(14.4844 87.107 43.0666)" fill="#706FE5"/>
<ellipse cx="76.1558" cy="85.4591" rx="2.5" ry="2.62469" transform="rotate(14.4844 76.1558 85.4591)" fill="#706FE5"/>
<ellipse cx="38.2801" cy="7.84249" rx="2.5" ry="2.62469" transform="rotate(14.4844 38.2801 7.84249)" fill="#706FE5"/>
<ellipse cx="27.3289" cy="50.2353" rx="2.5" ry="2.62469" transform="rotate(14.4844 27.3289 50.2353)" fill="#706FE5"/>
<ellipse cx="74.4817" cy="17.1944" rx="2.5" ry="2.62469" transform="rotate(14.4844 74.4817 17.1944)" fill="#706FE5"/>
<ellipse cx="63.5305" cy="59.5871" rx="2.5" ry="2.62469" transform="rotate(14.4844 63.5305 59.5871)" fill="#706FE5"/>
<ellipse cx="110.683" cy="26.5462" rx="2.5" ry="2.62469" transform="rotate(14.4844 110.683 26.5462)" fill="#706FE5"/>
<ellipse cx="99.7321" cy="68.939" rx="2.5" ry="2.62469" transform="rotate(14.4844 99.7321 68.939)" fill="#706FE5"/>
<ellipse cx="32.8046" cy="29.0388" rx="2.5" ry="2.62469" transform="rotate(14.4844 32.8046 29.0388)" fill="#706FE5"/>
<ellipse cx="21.8534" cy="71.4313" rx="2.5" ry="2.62469" transform="rotate(14.4844 21.8534 71.4313)" fill="#706FE5"/>
<ellipse cx="69.0062" cy="38.3906" rx="2.5" ry="2.62469" transform="rotate(14.4844 69.0062 38.3906)" fill="#706FE5"/>
<ellipse cx="58.055" cy="80.7831" rx="2.5" ry="2.62469" transform="rotate(14.4844 58.055 80.7831)" fill="#706FE5"/>
<ellipse cx="105.208" cy="47.7425" rx="2.5" ry="2.62469" transform="rotate(14.4844 105.208 47.7425)" fill="#706FE5"/>
<ellipse cx="94.2566" cy="90.135" rx="2.5" ry="2.62469" transform="rotate(14.4844 94.2566 90.135)" fill="#706FE5"/>
</svg>
