<svg width="49" height="50" viewBox="0 0 49 50" fill="none" xmlns="http://www.w3.org/2000/svg">
<rect opacity="0.15" x="-1" width="50" height="50" rx="12" fill="#706FE5"/>
<path d="M12.9473 27.8978C12.4241 27.8978 12 27.4736 12 26.9505C12 26.4273 12.4241 26.0032 12.9473 26.0032H35.0525C35.5757 26.0032 35.9998 26.4273 35.9998 26.9505C35.9998 27.4736 35.5757 27.8978 35.0525 27.8978H12.9473Z" fill="#706FE5"/>
<path d="M24.0031 22.8414C21.5616 22.8414 19.5824 20.8622 19.5824 18.4207C19.5824 15.9792 21.5616 14 24.0031 14C26.4446 14 28.4238 15.9792 28.4238 18.4207C28.4238 20.8622 26.4446 22.8414 24.0031 22.8414Z" fill="#706FE5"/>
<path d="M24.0031 19.0522C24.3519 19.0522 24.6346 18.7695 24.6346 18.4207C24.6346 18.0719 24.3519 17.7892 24.0031 17.7892C23.6543 17.7892 23.3716 18.0719 23.3716 18.4207C23.3716 18.7695 23.6543 19.0522 24.0031 19.0522Z" fill="#706FE5"/>
<path d="M21.4761 23.5143C19.8723 26.4333 15.3278 34.7534 15.1142 35.1436C14.9443 35.454 14.5527 35.5643 14.2459 35.3882C12.101 34.1572 11.3655 31.4285 12.6015 29.3004L18.3622 19.1409C18.6053 21.0632 19.8085 22.6862 21.4761 23.5143Z" fill="#2E3E5C"/>
<path d="M29.6399 19.1362L35.3988 29.2959C36.6363 31.4292 35.9019 34.1572 33.7598 35.3881C33.4527 35.5646 33.0605 35.454 32.8908 35.1431C29.0252 28.0604 27.3135 24.9275 26.5315 23.5114C28.1973 22.6816 29.3985 21.0582 29.6399 19.1362V19.1362Z" fill="#2E3E5C"/>
</svg>
